<!DOCTYPE svg PUBLIC "-//W3C//DTD SVG 1.1//EN" "http://www.w3.org/Graphics/SVG/1.1/DTD/svg11.dtd">
<svg
	width="16px" height="16px"
	id="Logos_colored"
	viewBox="0 0 382.72 382.72"
	version="1.1"
	sodipodi:docname="packagist.svg"
	inkscape:version="1.3.2 (091e20e, 2023-11-25)"
	xmlns:inkscape="http://www.inkscape.org/namespaces/inkscape"
	xmlns:sodipodi="http://sodipodi.sourceforge.net/DTD/sodipodi-0.dtd"
	xmlns="http://www.w3.org/2000/svg"
>
	<sodipodi:namedview
		id="namedview26"
		pagecolor="#ffffff"
		bordercolor="#000000"
		borderopacity="0.25"
		inkscape:showpageshadow="2"
		inkscape:pageopacity="0.0"
		inkscape:pagecheckerboard="0"
		inkscape:deskcolor="#d1d1d1"
		inkscape:zoom="0.92581562"
		inkscape:cx="177.68117"
		inkscape:cy="163.09943"
		inkscape:window-width="1728"
		inkscape:window-height="943"
		inkscape:window-x="0"
		inkscape:window-y="38"
		inkscape:window-maximized="0"
		inkscape:current-layer="Logos_colored"/>
	<defs
		id="defs1">
		<style
			id="style1">.cls-1{fill:#e0743f;}.cls-2{fill:#c15934;}.cls-3{fill:#e58b59;}
		</style>
	</defs>
	<path
		class="cls-1"
		d="m 36.910963,204.31172 v 39.36591 L 5.5136389,226.97967 c -1.121794,-0.59312 -1.830974,-1.74071 -1.830974,-2.99144 0,-1.25074 0.70918,-2.39832 1.830974,-2.99146 z"
		id="path17"
		style="stroke-width:1.28942"/>
	<path
		class="cls-2"
		d="m 244.61037,207.48368 v 117.27254 c 0,2.77224 -2.17912,4.95137 -4.95137,4.95137 H 220.44667 V 216.17436 l 20.57912,-9.50301 3.58458,0.82522 z"
		id="path18"
		style="stroke-width:1.28942"/>
	<path
		class="cls-1"
		d="m 378.38746,195.62104 c -0.21921,0.10315 -0.39972,0.15473 -0.56735,0.15473 -0.12894,0 -0.24499,-0.0258 -0.36104,-0.0903 l -37.48337,-4.38402 22.70664,-25.93019 c 0.20631,-0.24499 0.29657,-0.55445 0.27078,-0.85101 4.42271,8.21358 15.22802,28.26403 15.88562,29.4374 0.0516,0.0645 0.0903,0.14184 0.11606,0.20631 0.2192,0.56734 -0.0258,1.19916 -0.58024,1.45704 z"
		id="path19"
		style="stroke-width:1.28942"/>
	<path
		class="cls-2"
		d="m 127.15731,298.61973 -39.971953,39.97194 c -1.224944,1.3152 -2.991445,2.07597 -4.874002,2.07597 H 43.783554 c -3.790885,0 -6.885491,-3.09461 -6.885491,-6.88549 V 130.90516 c 0,-2.33384 1.147583,-4.48717 3.081714,-5.77659 L 104.5925,82.732514 c 1.08311,-0.722074 2.437,-1.121793 3.81667,-1.121793 h 18.72235 c 0,0 0.0516,0 0.0774,0 -0.0645,0 -0.11604,0 -0.16763,0 -0.28366,0.01289 -0.55445,0.141836 -0.74785,0.361037 l -24.53762,27.026202 c -1.23785,1.41835 -1.921232,3.24932 -1.921232,5.04162 v 24.67946 l -54.013713,30.15947 c -1.19916,0.67051 -2.037284,1.7665 -2.359636,3.09461 -0.322359,1.35389 -0.06446,2.78514 0.709179,3.95851 l 78.564222,114.31977 4.57744,6.89838 c 0.29656,0.4513 0.24499,1.04443 -0.14184,1.43126 z"
		id="path20"
		style="stroke-width:1.28942"/>
	<path
		class="cls-1"
		d="m 220.44667,216.16146 v 119.96742 c 0.0516,1.18627 -0.38682,2.32096 -1.22494,3.19776 -0.86391,0.90259 -2.07596,1.41836 -3.33959,1.41836 h -55.92205 c -1.61177,0 -3.12039,-0.78654 -4.03587,-2.12754 L 122.70881,290.29008 44.14459,175.97031 c -0.773648,-1.17337 -1.044422,-2.60463 -0.709179,-3.95851 0.322359,-1.3281 1.147583,-2.437 2.359635,-3.0946 l 54.013712,-30.15949 v 72.32344 c 0,2.72067 2.179112,4.95137 4.861112,4.95137 l 113.49454,0.54155 h 1.21205 c 0,0 0,0 0.0129,0 0.0774,0 0.15474,0 0.21921,-0.0258 0.0903,-0.0129 0.16762,-0.0387 0.24499,-0.0774 0.0387,-0.0129 0.0774,-0.0387 0.10315,-0.0516 l 0.47708,-0.2192 z"
		id="path21"
		style="stroke-width:1.28942"/>
	<path
		class="cls-1"
		d="m 220.44667,215.82622 v 0.34814 l -0.47708,0.2192 c 0.18053,-0.10316 0.32235,-0.25789 0.42551,-0.4513 0.0258,-0.0387 0.0387,-0.0645 0.0515,-0.10315 z"
		id="path22"
		style="stroke-width:1.28942"/>
	<path
		class="cls-2"
		d="M 241.49787,64.854255 H 173.21031 V 31.974103 c 0,-0.77365 0.38682,-1.547301 1.08311,-1.94702 0.2321,-0.232095 0.61892,-0.386826 1.08311,-0.386826 0.38682,0 0.77365,0.07737 1.08311,0.232095 l 64.45799,34.556395 c 0.20631,0.103154 0.39972,0.24499 0.55445,0.412614 z"
		id="path23"
		style="stroke-width:1.28942"/>
	<path
		class="cls-2"
		d="m 362.68234,165.3713 -22.70664,25.93019 -27.07777,30.92024 c -0.12894,0.14183 -0.29657,0.25788 -0.47709,0.32235 0.0645,-0.0515 0.11605,-0.10316 0.16762,-0.18052 0.25789,-0.37393 0.28368,-0.86391 0.0387,-1.26363 l -20.84988,-33.35724 -1.41837,-8.1749 22.83559,-21.75248 c 0.24499,-0.24499 0.59313,-0.34815 0.92838,-0.30946 l 47.8374,5.9829 c 0.4255,0.0515 0.77365,0.33525 0.92838,0.73497 0.0387,0.10315 0.0515,0.2063 0.0645,0.29657 0.0258,0.29656 -0.0645,0.61891 -0.27079,0.85101 z"
		id="path24"
		style="stroke-width:1.28942"/>
	<path
		class="cls-1"
		d="m 312.58846,222.35066 c -0.0515,0.0645 -0.10315,0.12895 -0.16762,0.18053 -0.2063,0.19341 -0.47708,0.29656 -0.77365,0.29656 -0.0774,0 -0.16762,-0.0129 -0.24499,-0.0258 l -66.80473,-15.31827 -3.58458,-0.82524 -21.0433,9.72222 c 0.18053,-0.10315 0.32235,-0.25788 0.42551,-0.4513 0.20631,-0.37393 0.16763,-0.82523 -0.0645,-1.18626 l -0.60603,-0.86391 -91.6647,-131.778497 c -0.20631,-0.283671 -0.51577,-0.46419 -0.86391,-0.477084 -0.0645,0 -0.11605,0 -0.16763,0 L 158.38698,67.67211 c 1.09599,-0.55445 2.26937,-0.670498 3.06881,-0.670498 h 73.62574 c 0.25789,0 0.51578,0.09026 0.70919,0.24499 l 38.28281,30.27553 c 1.58598,1.237836 2.61752,2.952758 2.97855,4.977158 l 13.30679,77.02981 1.41837,8.17491 20.84988,33.35724 c 0.24499,0.39972 0.21919,0.88969 -0.0387,1.26362 z"
		id="path25"
		style="stroke-width:1.28942"/>
	<path
		class="cls-3"
		d="m 220.52404,215.55543 c 0,0 -0.0129,0.0774 -0.0258,0.11606 0,0.0515 -0.0258,0.10315 -0.0516,0.15473 -0.0129,0.0387 -0.0258,0.0645 -0.0515,0.10315 -0.10315,0.18051 -0.24498,0.34814 -0.4255,0.4513 -0.0258,0.0129 -0.0645,0.0387 -0.10315,0.0515 -0.0774,0.0387 -0.15473,0.0645 -0.245,0.0774 -0.0645,0.0258 -0.14183,0.0258 -0.21919,0.0258 h -1.22496 c 0,0 -113.49454,-0.54155 -113.49454,-0.54155 -2.68198,0 -4.861112,-2.2178 -4.861112,-4.95136 v -97.00288 c 0,-1.7923 0.696292,-3.62327 1.921242,-5.04162 l 24.5376,-27.026202 c 0.19341,-0.219201 0.46419,-0.348144 0.74786,-0.361037 0.0516,0 0.10315,-0.01289 0.16763,0 0.14183,0 0.28367,0.03868 0.39972,0.103153 0.0515,0.01289 0.0903,0.03868 0.12894,0.06447 0.0515,0.03869 0.10315,0.06447 0.14183,0.116048 0.0516,0.03868 0.0774,0.07737 0.11605,0.116047 0.0258,0.02578 0.0515,0.05158 0.0645,0.09026 l 0.0258,0.05158 91.62602,131.739811 0.60603,0.86391 c 0.16762,0.24499 0.23209,0.51578 0.19341,0.79944 z"
		id="path26"
		style="stroke-width:1.28942"/>
</svg>
